<svg width="53" height="52" viewBox="0 0 53 52" fill="none" xmlns="http://www.w3.org/2000/svg">
<rect width="53" height="52" rx="8" fill="#EFFBFC"/>
<path d="M39 26L36.2273 22.8114L36.6136 18.5943L32.5114 17.6571L30.3636 14L26.5 15.6686L22.6364 14L20.4886 17.6457L16.3864 18.5714L16.7727 22.8L14 26L16.7727 29.1886L16.3864 33.4171L20.4886 34.3543L22.6364 38L26.5 36.32L30.3636 37.9886L32.5114 34.3429L36.6136 33.4057L36.2273 29.1886L39 26ZM23.5227 30.5829L20.8182 27.84C20.375 27.3943 20.375 26.6743 20.8182 26.2286L20.8977 26.1486C21.3409 25.7029 22.0682 25.7029 22.5114 26.1486L24.3409 28L30.1932 22.1029C30.6364 21.6571 31.3636 21.6571 31.8068 22.1029L31.8864 22.1829C32.3295 22.6286 32.3295 23.3486 31.8864 23.7943L25.1591 30.5829C24.6932 31.0286 23.9773 31.0286 23.5227 30.5829Z" fill="#00B5B7"/>
</svg>
