<svg width="52" height="52" viewBox="0 0 52 52" fill="none" xmlns="http://www.w3.org/2000/svg">
<rect y="0.30957" width="51.7142" height="51.124" rx="12" fill="#EFFBFC"/>
<path fill-rule="evenodd" clip-rule="evenodd" d="M19.6262 35.1049C20.5442 35.1049 21.2912 35.8506 21.2912 36.7686C21.2912 37.6866 20.5442 38.4336 19.6262 38.4336C18.7082 38.4336 17.9625 37.6866 17.9625 36.7686C17.9625 35.8506 18.7082 35.1049 19.6262 35.1049ZM34.1295 35.1049C35.0488 35.1049 35.7958 35.8506 35.7958 36.7686C35.7958 37.6866 35.0488 38.4336 34.1295 38.4336C33.2115 38.4336 32.4658 37.6866 32.4658 36.7686C32.4658 35.8506 33.2115 35.1049 34.1295 35.1049ZM14.1288 13.3218L16.8031 13.7846C17.2338 13.8605 17.5616 14.2179 17.5989 14.6551L17.9011 18.2563L19.0246 18.2568C19.2079 18.2569 19.3893 18.257 19.5688 18.2571L21.6315 18.258C21.7959 18.2581 21.9585 18.2582 22.1192 18.2583L24.3967 18.2595C24.5398 18.2596 24.6812 18.2597 24.8209 18.2598L26.4168 18.2608C26.5433 18.2609 26.6681 18.261 26.7914 18.2611L28.1951 18.2621C28.3059 18.2622 28.4153 18.2623 28.5231 18.2624L29.747 18.2634C29.8433 18.2635 29.9382 18.2636 30.0316 18.2637L30.8361 18.2645C30.9214 18.2646 31.0055 18.2647 31.0882 18.2648L32.0198 18.2658C32.0924 18.2659 32.1638 18.266 32.2341 18.2661L33.0206 18.2672C33.0816 18.2673 33.1415 18.2674 33.2002 18.2675L33.7001 18.2683C33.7525 18.2684 33.8039 18.2685 33.8542 18.2686L34.4111 18.2697C34.4537 18.2698 34.4953 18.2699 34.536 18.27L34.8788 18.2709C34.9142 18.271 34.9489 18.2711 34.9827 18.2712L35.3501 18.2723C35.3776 18.2724 35.4044 18.2725 35.4305 18.2726L35.6462 18.2735C35.6681 18.2736 35.6894 18.2737 35.71 18.2738L35.9283 18.275C35.9441 18.2751 35.9594 18.2752 35.9742 18.2753L36.0931 18.2762C36.1048 18.2763 36.1161 18.2764 36.1269 18.2765L36.2125 18.2774C36.2208 18.2775 36.2287 18.2776 36.2362 18.2777L36.2945 18.2786C36.2999 18.2787 36.3051 18.2788 36.31 18.2789L36.3469 18.2799C36.3502 18.28 36.3534 18.2801 36.3563 18.2802L36.383 18.2814L36.3876 18.2817C36.4001 18.2829 36.4038 18.2833 36.4038 18.2833C37.1199 18.3875 37.7499 18.7616 38.1794 19.3376C38.6088 19.9123 38.7888 20.6208 38.6859 21.3305L37.4658 29.7622C37.2356 31.3668 35.8419 32.5766 34.2219 32.5766H20.1806C18.4874 32.5766 17.0538 31.2549 16.9162 29.5642L15.7385 15.5576L13.8009 15.2233C13.2751 15.1308 12.9241 14.6332 13.0141 14.1073C13.1066 13.5815 13.6145 13.2395 14.1288 13.3218ZM32.1544 23.0087C32.6867 23.0087 33.1187 23.4407 33.1187 23.973C33.1187 24.5053 32.6867 24.9373 32.1544 24.9373H28.5904C28.0568 24.9373 27.6261 24.5053 27.6261 23.973C27.6261 23.4407 28.0568 23.0087 28.5904 23.0087H32.1544Z" fill="#00B5B7"/>
</svg>
