<svg width="52" height="52" viewBox="0 0 52 52" fill="none" xmlns="http://www.w3.org/2000/svg">
<rect width="52" height="52" rx="8" fill="#EFFBFC"/>
<g clip-path="url(#clip0_457_66277)">
<path d="M29.331 34.0995C29.7297 33.9346 30.1925 34.2749 30.1064 34.6977L30.072 34.8664C29.5003 37.0831 28.217 37.6664 26.642 37.6664H25.3703C23.7953 37.6664 22.5003 37.0831 21.9403 34.8548L21.9059 34.6793C21.8234 34.2591 22.2805 33.924 22.6759 34.0884C23.7203 34.5226 24.8436 34.7498 26.0003 34.7498C27.1602 34.7498 28.2871 34.5314 29.331 34.0995Z" fill="#00B5B7"/>
<path d="M30.1092 17.3121C30.198 17.7368 29.7314 18.0803 29.3312 17.9126C28.3083 17.4842 27.1835 17.2507 26.0003 17.2507C24.8211 17.2507 23.7008 17.4861 22.6785 17.9128C22.2807 18.0789 21.8193 17.7394 21.9054 17.317L21.9403 17.1457C22.5003 14.9173 23.7953 14.334 25.3703 14.334H26.6419C28.2169 14.334 29.5003 14.9173 30.0719 17.134L30.1092 17.3121Z" fill="#00B5B7"/>
<path d="M26.0003 18.416C21.812 18.416 18.417 21.811 18.417 25.9993C18.417 28.4493 19.572 30.6193 21.3687 32.0077H21.3803C22.6637 32.9993 24.262 33.5827 26.0003 33.5827C27.762 33.5827 29.372 32.9877 30.6553 31.9843H30.667C32.4403 30.596 33.5837 28.426 33.5837 25.9993C33.5837 21.811 30.1887 18.416 26.0003 18.416ZM28.252 28.776C28.077 28.951 27.8553 29.0327 27.6337 29.0327C27.412 29.0327 27.1903 28.951 27.0153 28.776L25.382 27.1427C25.2187 26.9793 25.1253 26.7577 25.1253 26.5243V23.2693C25.1253 22.791 25.522 22.3943 26.0003 22.3943C26.4787 22.3943 26.8753 22.791 26.8753 23.2693V26.1627L28.252 27.5393C28.5903 27.8777 28.5903 28.4377 28.252 28.776Z" fill="#00B5B7"/>
</g>
<defs>
<clipPath id="clip0_457_66277">
<rect width="24" height="24" fill="white" transform="translate(14 14)"/>
</clipPath>
</defs>
</svg>
