<svg width="162" height="166" viewBox="0 0 162 166" fill="none" xmlns="http://www.w3.org/2000/svg">
<path d="M116.383 17.7797C115.993 16.7893 115.276 15.9596 114.349 15.4262V15.4168C113.425 14.8847 112.347 14.6787 111.29 14.8323C110.233 14.9859 101.66 14.01 100.929 14.7828L32.7894 96.1735C32.1552 96.8415 31.7319 97.6793 31.5716 98.5835C31.4114 99.4877 31.5213 100.419 31.8878 101.262C32.2543 102.104 32.8613 102.822 33.634 103.326C34.4066 103.831 35.311 104.099 36.2355 104.099H67.6949L43.0714 165.162C43.0714 165.162 52.8873 165.816 58.6159 163.731C61.9998 162.5 134.353 83.8203 134.353 83.8203C134.988 83.1523 135.411 82.3145 135.571 81.4103C135.731 80.5061 135.622 79.5751 135.255 78.7323C134.889 77.8894 134.281 77.1716 133.509 76.6674C132.736 76.1632 131.832 75.8947 130.907 75.8951H99.4479L116.498 20.8789C116.814 19.8627 116.774 18.7701 116.383 17.7797Z" fill="#66D3D4"/>
<path d="M105.994 6.42566C106.92 6.95908 107.637 7.78875 108.028 8.77915C108.418 9.76955 108.459 10.8621 108.143 11.8784L91.0924 66.8945H122.552C123.476 66.8942 124.381 67.1626 125.153 67.6668C125.926 68.171 126.533 68.8889 126.9 69.7317C127.266 70.5746 127.376 71.5056 127.216 72.4098C127.056 73.314 126.632 74.1518 125.998 74.8198L50.2604 154.73C49.5276 155.504 48.5525 156.009 47.4939 156.162C46.4353 156.315 45.3558 156.107 44.4312 155.573C43.5067 155.039 42.7916 154.209 42.4026 153.22C42.0136 152.23 41.9736 151.139 42.2891 150.124L59.3395 95.0983H27.88C26.9555 95.0986 26.0511 94.8301 25.2785 94.3259C24.5059 93.8217 23.8988 93.1039 23.5324 92.2611C23.1659 91.4182 23.0559 90.4872 23.2162 89.583C23.3764 88.6788 23.7997 87.841 24.434 87.173L100.171 7.26238C100.903 6.48958 101.877 5.98539 102.934 5.83177C103.991 5.67816 105.07 5.88415 105.994 6.41626V6.42566Z" fill="white"/>
<rect x="80.2402" y="40.4961" width="7.43916" height="31.6582" rx="3.71958" transform="rotate(45 80.2402 40.4961)" fill="#00B5B7"/>
</svg>
